<svg width="3023" height="750" viewBox="0 0 3023 750" fill="none" xmlns="http://www.w3.org/2000/svg">
<path d="M1020.23 42.4907V706.767" stroke="#333333" stroke-width="10.4653"/>
<mask id="path-2-outside-1_1_84" maskUnits="userSpaceOnUse" x="-0.921875" y="-0.919434" width="2014" height="751" fill="black">
<rect fill="white" x="-0.921875" y="-0.919434" width="2014" height="751"/>
<path d="M143.536 196.304H119.567C120.519 165.704 133.677 98.0862 178.694 72.4097C223.711 46.7332 247.096 41.8556 285.401 59.0713C314.296 72.0574 331.14 88.3891 340.422 118.677C354.452 164.457 322.476 194.88 290.82 230.804C258.206 267.814 217.108 260.312 182.028 294.995C141.431 335.133 104.758 402.953 111.349 422.961C112.817 440.606 127.424 473.73 174.109 465.06C220.793 456.39 275.412 372.052 319.581 297.496C376.27 201.807 388.774 124.346 467.138 61.989C545.501 -0.368191 584.412 -3.61128 664.296 4.05015C729.003 10.2559 779.341 22.7239 806.017 87.4154C832.694 152.107 742.104 224.412 693.474 252.479C639.565 277.627 516.49 339.929 455.466 387.947C394.443 435.966 393.915 510.494 401.279 541.756C438.627 617.118 539.388 636.237 585.099 636.376C625.393 642.489 720.735 638.71 779.758 574.685C838.78 510.661 793.654 483.816 762.667 493.404C656.988 526.105 544.834 489.486 572.178 420.46C599.522 351.433 660.823 335.566 688.056 336.261C690.39 355.935 703.895 365.855 703.895 365.855C703.895 365.855 732.573 384.613 808.935 387.947C884.803 391.26 884.801 415.258 884.798 449.794V450.471C884.798 553.381 809.783 600.494 726.82 661.385C623.903 736.923 477.558 755.866 411.283 746.835C376.269 749.614 270.842 729.303 237.883 661.385C201.92 587.277 254.278 495.072 296.656 458.808C327.084 429.491 411.95 360.77 507.987 320.421C604.023 280.073 619.974 216.632 615.945 189.955C602.606 89.5829 516.74 100.615 475.474 118.677C431.707 138.268 376.27 227.886 352.927 282.595C334.253 326.363 268.45 422.475 237.883 465.06C191.199 533.42 134.075 550.418 111.349 550.372C30.8102 554.755 4.74021 504.259 1.77252 478.463C-4.80205 423.675 36.9281 375.279 58.6151 357.929C74.1383 343.775 116.827 308.894 163.397 282.595C209.967 256.297 237.133 226.894 244.895 215.48C251.515 196.761 254.208 156.857 212.022 146.995C169.835 137.133 148.787 175.758 143.536 196.304Z"/>
<path d="M2011.3 577.7C1992.29 577.7 1976.63 583.967 1965.97 596.082C1964.09 598.171 1962.63 600.26 1961.17 602.558C1961.17 602.558 1994.21 624.296 2002.95 646.215C2011.59 667.887 2002.95 705.957 2002.95 705.957H1993.76C1975.79 705.957 1959.71 698.019 1948.64 683.815C1938.82 671.282 1933.6 654.362 1933.6 636.606C1933.6 625.744 1935.48 615.3 1939.24 605.691C1939.24 605.691 1927.39 589.314 1916.89 582.296C1876.73 555.472 1964.48 697.757 1916.89 705.957C1908.69 707.37 1903.6 708.183 1895.58 705.957C1880.18 701.681 1867.38 676.295 1867.38 676.295C1866.13 678.175 1864.87 679.846 1863.41 681.308C1849.42 697.393 1828.94 705.957 1804.71 705.957V687.993C1823.72 687.993 1839.39 681.517 1849.83 669.402C1851.71 667.522 1853.38 665.224 1854.85 663.135C1854.85 663.135 1821.78 641.264 1813.07 619.269C1804.51 597.653 1813.07 559.736 1813.07 559.736H1822.05C1840.02 559.736 1856.1 567.465 1867.17 581.669C1876.99 594.411 1882.42 611.122 1882.42 628.878C1882.42 639.74 1880.33 650.184 1876.57 659.793C1876.57 659.793 1888.41 676.175 1898.92 683.188C1939.02 709.949 1853.69 576.43 1898.92 559.736C1906.98 556.76 1912.21 557.513 1920.23 559.736C1935.57 563.99 1948.43 589.189 1948.43 589.189C1949.68 587.518 1950.94 585.847 1952.4 584.176C1966.6 568.091 1986.86 559.736 2011.3 559.736V577.7ZM1862.37 644.962C1863.62 639.949 1864.25 634.518 1864.25 628.878C1864.25 606.318 1852.97 583.549 1831.03 578.745C1831.03 578.745 1826.92 599.78 1831.03 612.167C1836.62 628.977 1862.37 644.962 1862.37 644.962ZM1984.77 653.526C1979.21 636.649 1953.44 620.522 1953.44 620.522C1952.19 625.744 1951.56 631.175 1951.56 636.606C1951.56 659.166 1962.84 681.935 1984.77 686.948C1984.77 686.948 1988.86 665.921 1984.77 653.526Z"/>
<path d="M1312.29 643.42C1324.01 653.88 1328.82 668.314 1325.26 682.748C1317.1 716.428 1279.03 712.872 1276.1 712.453C1260.41 710.57 1245.98 702.831 1235.31 690.488C1229.87 684.213 1225.48 676.682 1222.34 668.523C1214.6 678.774 1209.58 692.371 1207.49 708.479L1189.71 707.433V561.836H1207.7V658.064C1210.83 653.88 1213.97 650.324 1217.32 647.395C1216.9 643.211 1216.69 639.028 1216.69 634.635C1216.69 585.266 1243.47 560.163 1270.04 557.025C1289.7 554.933 1306.02 564.974 1309.78 581.5C1312.5 593.215 1309.36 603.884 1300.58 611.414C1285.31 625.012 1257.07 625.849 1235.73 619.782C1234.05 627.522 1234.68 635.262 1234.68 635.471C1236.77 634.425 1238.87 633.589 1240.75 632.961C1265.22 623.547 1294.72 627.94 1312.29 643.42ZM1247.44 589.659C1244.72 593.215 1242.21 597.608 1240.33 602.419C1258.32 607.649 1279.66 605.976 1288.65 598.026C1292.42 594.679 1293.46 590.914 1292.21 585.684C1290.33 576.898 1280.29 574.179 1272.13 575.015C1266.69 575.643 1256.44 578.362 1247.44 589.659ZM1307.69 678.564C1310.2 668.314 1304.97 661.202 1300.37 657.018C1289.49 647.604 1267.73 641.956 1247.23 649.696C1243.68 651.161 1240.33 652.834 1237.19 654.717C1242.42 674.799 1255.6 691.953 1278.19 694.672C1290.54 696.136 1304.55 691.743 1307.69 678.564Z"/>
<path d="M1451.97 561.418H1473.73V707.223H1455.74V618.945C1449.46 633.17 1440.68 648.65 1427.71 663.084C1382.52 713.499 1337.34 705.55 1337.34 705.55V686.723C1337.34 686.723 1386.71 649.696 1355.33 593.006V630.66H1337.34V561.418H1354.7C1354.7 561.418 1413.48 623.129 1364.11 685.049C1377.08 681.075 1395.49 672.08 1414.32 650.951C1449.88 611.205 1451.97 561.418 1451.97 561.418Z"/>
<path d="M1620.42 576.898C1630.88 587.776 1636.74 602.419 1636.74 617.899C1636.74 647.604 1614.78 677.518 1572.94 677.518C1554.74 677.518 1539.05 671.243 1526.71 658.691C1521.06 653.043 1516.67 646.768 1512.9 639.864V707.223H1494.91C1494.91 707.223 1494.91 561.836 1494.91 561.627L1512.9 561.836C1512.9 561.836 1512.27 577.107 1515.83 592.587C1517.09 589.868 1518.76 587.148 1520.43 584.638C1531.73 567.903 1550.76 558.28 1572.94 558.28C1592.39 558.28 1608.92 564.765 1620.42 576.898ZM1607.46 646.558C1614.78 639.028 1618.54 628.986 1618.54 617.899C1618.54 607.021 1614.78 596.98 1607.46 589.449C1599.3 580.873 1587.37 576.48 1572.94 576.48C1556.62 576.48 1543.23 582.965 1535.28 594.679C1519.8 617.69 1532.36 638.609 1539.47 645.931C1548.67 655.135 1559.55 659.528 1572.94 659.528C1587.37 659.528 1599.3 655.135 1607.46 646.558Z"/>
<path d="M1787.38 696.973L1788.64 707.223H1769.6C1769.6 707.223 1757.47 673.544 1714.79 658.901C1701.41 654.298 1689.48 652.834 1683.83 652.416C1680.28 666.431 1672.75 707.223 1672.75 707.223H1650.78V561.836H1668.77V638.609C1674 619.154 1679.86 603.047 1686.14 590.914C1697.01 569.576 1709.56 558.908 1723.58 558.908C1754.54 558.908 1774.62 602.838 1787.38 696.973ZM1720.02 641.538C1737.81 647.604 1752.87 656.809 1764.79 668.732C1750.36 586.521 1731.53 576.898 1723.58 576.898C1720.02 576.898 1704.75 580.454 1688.65 634.844C1695.97 635.471 1707.26 637.354 1720.02 641.538Z"/>
</mask>
<g filter="url(#filter0_i_1_84)">
<path d="M143.536 196.304H119.567C120.519 165.704 133.677 98.0862 178.694 72.4097C223.711 46.7332 247.096 41.8556 285.401 59.0713C314.296 72.0574 331.14 88.3891 340.422 118.677C354.452 164.457 322.476 194.88 290.82 230.804C258.206 267.814 217.108 260.312 182.028 294.995C141.431 335.133 104.758 402.953 111.349 422.961C112.817 440.606 127.424 473.73 174.109 465.06C220.793 456.39 275.412 372.052 319.581 297.496C376.27 201.807 388.774 124.346 467.138 61.989C545.501 -0.368191 584.412 -3.61128 664.296 4.05015C729.003 10.2559 779.341 22.7239 806.017 87.4154C832.694 152.107 742.104 224.412 693.474 252.479C639.565 277.627 516.49 339.929 455.466 387.947C394.443 435.966 393.915 510.494 401.279 541.756C438.627 617.118 539.388 636.237 585.099 636.376C625.393 642.489 720.735 638.71 779.758 574.685C838.78 510.661 793.654 483.816 762.667 493.404C656.988 526.105 544.834 489.486 572.178 420.46C599.522 351.433 660.823 335.566 688.056 336.261C690.39 355.935 703.895 365.855 703.895 365.855C703.895 365.855 732.573 384.613 808.935 387.947C884.803 391.26 884.801 415.258 884.798 449.794V450.471C884.798 553.381 809.783 600.494 726.82 661.385C623.903 736.923 477.558 755.866 411.283 746.835C376.269 749.614 270.842 729.303 237.883 661.385C201.92 587.277 254.278 495.072 296.656 458.808C327.084 429.491 411.95 360.77 507.987 320.421C604.023 280.073 619.974 216.632 615.945 189.955C602.606 89.5829 516.74 100.615 475.474 118.677C431.707 138.268 376.27 227.886 352.927 282.595C334.253 326.363 268.45 422.475 237.883 465.06C191.199 533.42 134.075 550.418 111.349 550.372C30.8102 554.755 4.74021 504.259 1.77252 478.463C-4.80205 423.675 36.9281 375.279 58.6151 357.929C74.1383 343.775 116.827 308.894 163.397 282.595C209.967 256.297 237.133 226.894 244.895 215.48C251.515 196.761 254.208 156.857 212.022 146.995C169.835 137.133 148.787 175.758 143.536 196.304Z" fill="#333333"/>
<path d="M2011.3 577.7C1992.29 577.7 1976.63 583.967 1965.97 596.082C1964.09 598.171 1962.63 600.26 1961.17 602.558C1961.17 602.558 1994.21 624.296 2002.95 646.215C2011.59 667.887 2002.95 705.957 2002.95 705.957H1993.76C1975.79 705.957 1959.71 698.019 1948.64 683.815C1938.82 671.282 1933.6 654.362 1933.6 636.606C1933.6 625.744 1935.48 615.3 1939.24 605.691C1939.24 605.691 1927.39 589.314 1916.89 582.296C1876.73 555.472 1964.48 697.757 1916.89 705.957C1908.69 707.37 1903.6 708.183 1895.58 705.957C1880.18 701.681 1867.38 676.295 1867.38 676.295C1866.13 678.175 1864.87 679.846 1863.41 681.308C1849.42 697.393 1828.94 705.957 1804.71 705.957V687.993C1823.72 687.993 1839.39 681.517 1849.83 669.402C1851.71 667.522 1853.38 665.224 1854.85 663.135C1854.85 663.135 1821.78 641.264 1813.07 619.269C1804.51 597.653 1813.07 559.736 1813.07 559.736H1822.05C1840.02 559.736 1856.1 567.465 1867.17 581.669C1876.99 594.411 1882.42 611.122 1882.42 628.878C1882.42 639.74 1880.33 650.184 1876.57 659.793C1876.57 659.793 1888.41 676.175 1898.92 683.188C1939.02 709.949 1853.69 576.43 1898.92 559.736C1906.98 556.76 1912.21 557.513 1920.23 559.736C1935.57 563.99 1948.43 589.189 1948.43 589.189C1949.68 587.518 1950.94 585.847 1952.4 584.176C1966.6 568.091 1986.86 559.736 2011.3 559.736V577.7ZM1862.37 644.962C1863.62 639.949 1864.25 634.518 1864.25 628.878C1864.25 606.318 1852.97 583.549 1831.03 578.745C1831.03 578.745 1826.92 599.78 1831.03 612.167C1836.62 628.977 1862.37 644.962 1862.37 644.962ZM1984.77 653.526C1979.21 636.649 1953.44 620.522 1953.44 620.522C1952.19 625.744 1951.56 631.175 1951.56 636.606C1951.56 659.166 1962.84 681.935 1984.77 686.948C1984.77 686.948 1988.86 665.921 1984.77 653.526Z" fill="#333333"/>
<path d="M1312.29 643.42C1324.01 653.88 1328.82 668.314 1325.26 682.748C1317.1 716.428 1279.03 712.872 1276.1 712.453C1260.41 710.57 1245.98 702.831 1235.31 690.488C1229.87 684.213 1225.48 676.682 1222.34 668.523C1214.6 678.774 1209.58 692.371 1207.49 708.479L1189.71 707.433V561.836H1207.7V658.064C1210.83 653.88 1213.97 650.324 1217.32 647.395C1216.9 643.211 1216.69 639.028 1216.69 634.635C1216.69 585.266 1243.47 560.163 1270.04 557.025C1289.7 554.933 1306.02 564.974 1309.78 581.5C1312.5 593.215 1309.36 603.884 1300.58 611.414C1285.31 625.012 1257.07 625.849 1235.73 619.782C1234.05 627.522 1234.68 635.262 1234.68 635.471C1236.77 634.425 1238.87 633.589 1240.75 632.961C1265.22 623.547 1294.72 627.94 1312.29 643.42ZM1247.44 589.659C1244.72 593.215 1242.21 597.608 1240.33 602.419C1258.32 607.649 1279.66 605.976 1288.65 598.026C1292.42 594.679 1293.46 590.914 1292.21 585.684C1290.33 576.898 1280.29 574.179 1272.13 575.015C1266.69 575.643 1256.44 578.362 1247.44 589.659ZM1307.69 678.564C1310.2 668.314 1304.97 661.202 1300.37 657.018C1289.49 647.604 1267.73 641.956 1247.23 649.696C1243.68 651.161 1240.33 652.834 1237.19 654.717C1242.42 674.799 1255.6 691.953 1278.19 694.672C1290.54 696.136 1304.55 691.743 1307.69 678.564Z" fill="#333333"/>
<path d="M1451.97 561.418H1473.73V707.223H1455.74V618.945C1449.46 633.17 1440.68 648.65 1427.71 663.084C1382.52 713.499 1337.34 705.55 1337.34 705.55V686.723C1337.34 686.723 1386.71 649.696 1355.33 593.006V630.66H1337.34V561.418H1354.7C1354.7 561.418 1413.48 623.129 1364.11 685.049C1377.08 681.075 1395.49 672.08 1414.32 650.951C1449.88 611.205 1451.97 561.418 1451.97 561.418Z" fill="#333333"/>
<path d="M1620.42 576.898C1630.88 587.776 1636.74 602.419 1636.74 617.899C1636.74 647.604 1614.78 677.518 1572.94 677.518C1554.74 677.518 1539.05 671.243 1526.71 658.691C1521.06 653.043 1516.67 646.768 1512.9 639.864V707.223H1494.91C1494.91 707.223 1494.91 561.836 1494.91 561.627L1512.9 561.836C1512.9 561.836 1512.27 577.107 1515.83 592.587C1517.09 589.868 1518.76 587.148 1520.43 584.638C1531.73 567.903 1550.76 558.28 1572.94 558.28C1592.39 558.28 1608.92 564.765 1620.42 576.898ZM1607.46 646.558C1614.78 639.028 1618.54 628.986 1618.54 617.899C1618.54 607.021 1614.78 596.98 1607.46 589.449C1599.3 580.873 1587.37 576.48 1572.94 576.48C1556.62 576.48 1543.23 582.965 1535.28 594.679C1519.8 617.69 1532.36 638.609 1539.47 645.931C1548.67 655.135 1559.55 659.528 1572.94 659.528C1587.37 659.528 1599.3 655.135 1607.46 646.558Z" fill="#333333"/>
<path d="M1787.38 696.973L1788.64 707.223H1769.6C1769.6 707.223 1757.47 673.544 1714.79 658.901C1701.41 654.298 1689.48 652.834 1683.83 652.416C1680.28 666.431 1672.75 707.223 1672.75 707.223H1650.78V561.836H1668.77V638.609C1674 619.154 1679.86 603.047 1686.14 590.914C1697.01 569.576 1709.56 558.908 1723.58 558.908C1754.54 558.908 1774.62 602.838 1787.38 696.973ZM1720.02 641.538C1737.81 647.604 1752.87 656.809 1764.79 668.732C1750.36 586.521 1731.53 576.898 1723.58 576.898C1720.02 576.898 1704.75 580.454 1688.65 634.844C1695.97 635.471 1707.26 637.354 1720.02 641.538Z" fill="#333333"/>
</g>
<path d="M143.536 196.304H119.567C120.519 165.704 133.677 98.0862 178.694 72.4097C223.711 46.7332 247.096 41.8556 285.401 59.0713C314.296 72.0574 331.14 88.3891 340.422 118.677C354.452 164.457 322.476 194.88 290.82 230.804C258.206 267.814 217.108 260.312 182.028 294.995C141.431 335.133 104.758 402.953 111.349 422.961C112.817 440.606 127.424 473.73 174.109 465.06C220.793 456.39 275.412 372.052 319.581 297.496C376.27 201.807 388.774 124.346 467.138 61.989C545.501 -0.368191 584.412 -3.61128 664.296 4.05015C729.003 10.2559 779.341 22.7239 806.017 87.4154C832.694 152.107 742.104 224.412 693.474 252.479C639.565 277.627 516.49 339.929 455.466 387.947C394.443 435.966 393.915 510.494 401.279 541.756C438.627 617.118 539.388 636.237 585.099 636.376C625.393 642.489 720.735 638.71 779.758 574.685C838.78 510.661 793.654 483.816 762.667 493.404C656.988 526.105 544.834 489.486 572.178 420.46C599.522 351.433 660.823 335.566 688.056 336.261C690.39 355.935 703.895 365.855 703.895 365.855C703.895 365.855 732.573 384.613 808.935 387.947C884.803 391.26 884.801 415.258 884.798 449.794V450.471C884.798 553.381 809.783 600.494 726.82 661.385C623.903 736.923 477.558 755.866 411.283 746.835C376.269 749.614 270.842 729.303 237.883 661.385C201.92 587.277 254.278 495.072 296.656 458.808C327.084 429.491 411.95 360.77 507.987 320.421C604.023 280.073 619.974 216.632 615.945 189.955C602.606 89.5829 516.74 100.615 475.474 118.677C431.707 138.268 376.27 227.886 352.927 282.595C334.253 326.363 268.45 422.475 237.883 465.06C191.199 533.42 134.075 550.418 111.349 550.372C30.8102 554.755 4.74021 504.259 1.77252 478.463C-4.80205 423.675 36.9281 375.279 58.6151 357.929C74.1383 343.775 116.827 308.894 163.397 282.595C209.967 256.297 237.133 226.894 244.895 215.48C251.515 196.761 254.208 156.857 212.022 146.995C169.835 137.133 148.787 175.758 143.536 196.304Z" stroke="#333333" stroke-width="2.16092" mask="url(#path-2-outside-1_1_84)"/>
<path d="M2011.3 577.7C1992.29 577.7 1976.63 583.967 1965.97 596.082C1964.09 598.171 1962.63 600.26 1961.17 602.558C1961.17 602.558 1994.21 624.296 2002.95 646.215C2011.59 667.887 2002.95 705.957 2002.95 705.957H1993.76C1975.79 705.957 1959.71 698.019 1948.64 683.815C1938.82 671.282 1933.6 654.362 1933.6 636.606C1933.6 625.744 1935.48 615.3 1939.24 605.691C1939.24 605.691 1927.39 589.314 1916.89 582.296C1876.73 555.472 1964.48 697.757 1916.89 705.957C1908.69 707.37 1903.6 708.183 1895.58 705.957C1880.18 701.681 1867.38 676.295 1867.38 676.295C1866.13 678.175 1864.87 679.846 1863.41 681.308C1849.42 697.393 1828.94 705.957 1804.71 705.957V687.993C1823.72 687.993 1839.39 681.517 1849.83 669.402C1851.71 667.522 1853.38 665.224 1854.85 663.135C1854.85 663.135 1821.78 641.264 1813.07 619.269C1804.51 597.653 1813.07 559.736 1813.07 559.736H1822.05C1840.02 559.736 1856.1 567.465 1867.17 581.669C1876.99 594.411 1882.42 611.122 1882.42 628.878C1882.42 639.74 1880.33 650.184 1876.57 659.793C1876.57 659.793 1888.41 676.175 1898.92 683.188C1939.02 709.949 1853.69 576.43 1898.92 559.736C1906.98 556.76 1912.21 557.513 1920.23 559.736C1935.57 563.99 1948.43 589.189 1948.43 589.189C1949.68 587.518 1950.94 585.847 1952.4 584.176C1966.6 568.091 1986.86 559.736 2011.3 559.736V577.7ZM1862.37 644.962C1863.62 639.949 1864.25 634.518 1864.25 628.878C1864.25 606.318 1852.97 583.549 1831.03 578.745C1831.03 578.745 1826.92 599.78 1831.03 612.167C1836.62 628.977 1862.37 644.962 1862.37 644.962ZM1984.77 653.526C1979.21 636.649 1953.44 620.522 1953.44 620.522C1952.19 625.744 1951.56 631.175 1951.56 636.606C1951.56 659.166 1962.84 681.935 1984.77 686.948C1984.77 686.948 1988.86 665.921 1984.77 653.526Z" stroke="#333333" stroke-width="2.16092" mask="url(#path-2-outside-1_1_84)"/>
<path d="M1312.29 643.42C1324.01 653.88 1328.82 668.314 1325.26 682.748C1317.1 716.428 1279.03 712.872 1276.1 712.453C1260.41 710.57 1245.98 702.831 1235.31 690.488C1229.87 684.213 1225.48 676.682 1222.34 668.523C1214.6 678.774 1209.58 692.371 1207.49 708.479L1189.71 707.433V561.836H1207.7V658.064C1210.83 653.88 1213.97 650.324 1217.32 647.395C1216.9 643.211 1216.69 639.028 1216.69 634.635C1216.69 585.266 1243.47 560.163 1270.04 557.025C1289.7 554.933 1306.02 564.974 1309.78 581.5C1312.5 593.215 1309.36 603.884 1300.58 611.414C1285.31 625.012 1257.07 625.849 1235.73 619.782C1234.05 627.522 1234.68 635.262 1234.68 635.471C1236.77 634.425 1238.87 633.589 1240.75 632.961C1265.22 623.547 1294.72 627.94 1312.29 643.42ZM1247.44 589.659C1244.72 593.215 1242.21 597.608 1240.33 602.419C1258.32 607.649 1279.66 605.976 1288.65 598.026C1292.42 594.679 1293.46 590.914 1292.21 585.684C1290.33 576.898 1280.29 574.179 1272.13 575.015C1266.69 575.643 1256.44 578.362 1247.44 589.659ZM1307.69 678.564C1310.2 668.314 1304.97 661.202 1300.37 657.018C1289.49 647.604 1267.73 641.956 1247.23 649.696C1243.68 651.161 1240.33 652.834 1237.19 654.717C1242.42 674.799 1255.6 691.953 1278.19 694.672C1290.54 696.136 1304.55 691.743 1307.69 678.564Z" stroke="#333333" stroke-width="2.16092" mask="url(#path-2-outside-1_1_84)"/>
<path d="M1451.97 561.418H1473.73V707.223H1455.74V618.945C1449.46 633.17 1440.68 648.65 1427.71 663.084C1382.52 713.499 1337.34 705.55 1337.34 705.55V686.723C1337.34 686.723 1386.71 649.696 1355.33 593.006V630.66H1337.34V561.418H1354.7C1354.7 561.418 1413.48 623.129 1364.11 685.049C1377.08 681.075 1395.49 672.08 1414.32 650.951C1449.88 611.205 1451.97 561.418 1451.97 561.418Z" stroke="#333333" stroke-width="2.16092" mask="url(#path-2-outside-1_1_84)"/>
<path d="M1620.42 576.898C1630.88 587.776 1636.74 602.419 1636.74 617.899C1636.74 647.604 1614.78 677.518 1572.94 677.518C1554.74 677.518 1539.05 671.243 1526.71 658.691C1521.06 653.043 1516.67 646.768 1512.9 639.864V707.223H1494.91C1494.91 707.223 1494.91 561.836 1494.91 561.627L1512.9 561.836C1512.9 561.836 1512.27 577.107 1515.83 592.587C1517.09 589.868 1518.76 587.148 1520.43 584.638C1531.73 567.903 1550.76 558.28 1572.94 558.28C1592.39 558.28 1608.92 564.765 1620.42 576.898ZM1607.46 646.558C1614.78 639.028 1618.54 628.986 1618.54 617.899C1618.54 607.021 1614.78 596.98 1607.46 589.449C1599.3 580.873 1587.37 576.48 1572.94 576.48C1556.62 576.48 1543.23 582.965 1535.28 594.679C1519.8 617.69 1532.36 638.609 1539.47 645.931C1548.67 655.135 1559.55 659.528 1572.94 659.528C1587.37 659.528 1599.3 655.135 1607.46 646.558Z" stroke="#333333" stroke-width="2.16092" mask="url(#path-2-outside-1_1_84)"/>
<path d="M1787.38 696.973L1788.64 707.223H1769.6C1769.6 707.223 1757.47 673.544 1714.79 658.901C1701.41 654.298 1689.48 652.834 1683.83 652.416C1680.28 666.431 1672.75 707.223 1672.75 707.223H1650.78V561.836H1668.77V638.609C1674 619.154 1679.86 603.047 1686.14 590.914C1697.01 569.576 1709.56 558.908 1723.58 558.908C1754.54 558.908 1774.62 602.838 1787.38 696.973ZM1720.02 641.538C1737.81 647.604 1752.87 656.809 1764.79 668.732C1750.36 586.521 1731.53 576.898 1723.58 576.898C1720.02 576.898 1704.75 580.454 1688.65 634.844C1695.97 635.471 1707.26 637.354 1720.02 641.538Z" stroke="#333333" stroke-width="2.16092" mask="url(#path-2-outside-1_1_84)"/>
<path d="M1229.31 166.614C1202.11 166.614 1186.99 146.579 1186.99 118.318C1186.99 90.1895 1202.24 70.1545 1229.71 70.1545C1239.26 70.1545 1248.82 72.5428 1258.5 77.3193L1255.45 84.0861C1246.16 79.7076 1237.41 77.5847 1229.31 77.5847C1205.03 77.5847 1195.35 97.7523 1195.35 118.318C1195.35 143.129 1208.35 159.184 1228.91 159.184C1236.74 159.184 1245.63 157.061 1255.45 152.683L1258.5 159.449C1248.82 164.226 1239.13 166.614 1229.31 166.614Z" fill="#333333"/>
<path d="M1305.66 165.287H1297.43V78.7788H1267.45V71.4814H1335.64V78.7788H1305.66V165.287Z" fill="#333333"/>
<path d="M1359.66 170.197L1353.83 164.491C1361.92 155.867 1367.89 146.977 1372 137.955L1344.01 71.4814H1353.03L1376.25 128.269L1398.67 71.4814H1407.43L1383.28 131.055C1377.05 146.845 1368.29 161.572 1359.66 170.197Z" fill="#333333"/>
<path d="M1476.25 183.067H1468.43V165.287H1398.5V183.067H1390.68V157.99H1401.42C1412.83 137.159 1418.14 109.428 1420.26 71.4814H1465.38V157.99H1476.25V183.067ZM1457.15 157.99V78.7788H1427.69C1425.17 118.451 1419.2 139.68 1410.58 157.99H1457.15Z" fill="#333333"/>
<path d="M1548.37 165.287H1492.25V71.4814H1548.37V78.7788H1500.48V114.603H1539.88V121.9H1500.48V157.99H1548.37V165.287Z" fill="#333333"/>
<path d="M1636.38 165.287H1628.15V121.9H1576.28V165.287H1568.05V71.4814H1576.28V114.603H1628.15V71.4814H1636.38V165.287Z" fill="#333333"/>
<path d="M1717.43 165.287H1709.21V123.36C1701.64 127.208 1691.56 129.331 1683.33 129.331C1665.69 129.331 1656.67 119.379 1656.67 102.396V71.4814H1664.89V101.467C1664.89 114.47 1670.46 122.166 1685.06 122.166C1693.29 122.166 1701.25 120.308 1709.21 116.726V71.4814H1717.43V165.287Z" fill="#333333"/>
<path d="M1799.87 165.287H1743.75V71.4814H1799.87V78.7788H1751.97V114.603H1791.38V121.9H1751.97V157.99H1799.87V165.287Z" fill="#333333"/>
<path d="M1845.17 166.614C1817.97 166.614 1802.84 146.579 1802.84 118.318C1802.84 90.1895 1818.1 70.1545 1845.57 70.1545C1855.12 70.1545 1864.67 72.5428 1874.36 77.3193L1871.31 84.0861C1862.02 79.7076 1853.26 77.5847 1845.17 77.5847C1820.89 77.5847 1811.2 97.7523 1811.2 118.318C1811.2 143.129 1824.2 159.184 1844.77 159.184C1852.6 159.184 1861.49 157.061 1871.31 152.683L1874.36 159.449C1864.67 164.226 1854.99 166.614 1845.17 166.614Z" fill="#333333"/>
<path d="M1950.24 166.083C1935.92 151.754 1923.97 136.628 1912.83 120.308H1899.43V165.287H1891.2V71.4814H1899.43V113.674H1913.09L1928.35 88.5973C1935.25 77.1867 1943.35 71.4814 1952.63 71.4814L1953.96 78.5135C1945.34 78.5135 1939.1 85.1476 1933.39 94.3026L1919.73 116.726C1930.08 131.453 1941.49 145.783 1956.35 160.909L1950.24 166.083Z" fill="#333333"/>
<path d="M1995.95 159.184C2017.04 159.184 2028.19 140.874 2028.19 118.318C2028.19 96.2928 2017.84 77.5847 1995.95 77.5847C1974.72 77.5847 1963.71 96.1601 1963.71 118.318C1963.71 143.129 1976.44 159.184 1995.95 159.184ZM1995.95 166.614C1971.53 166.614 1955.35 147.243 1955.35 118.318C1955.35 90.8529 1970.34 70.1545 1995.95 70.1545C2021.29 70.1545 2036.55 90.1895 2036.55 118.318C2036.55 145.12 2022.09 166.614 1995.95 166.614Z" fill="#333333"/>
<path d="M2113.83 165.287H2057.7V71.4814H2113.83V78.7788H2065.93V114.603H2105.33V121.9H2065.93V157.99H2113.83V165.287Z" fill="#333333"/>
<path d="M2204.73 166.614C2177.53 166.614 2162.4 146.579 2162.4 118.318C2162.4 90.1895 2177.66 70.1545 2205.13 70.1545C2214.68 70.1545 2224.23 72.5428 2233.92 77.3193L2230.87 84.0861C2221.58 79.7076 2212.82 77.5847 2204.73 77.5847C2180.45 77.5847 2170.76 97.7523 2170.76 118.318C2170.76 143.129 2183.77 159.184 2204.33 159.184C2212.16 159.184 2221.05 157.061 2230.87 152.683L2233.92 159.449C2224.23 164.226 2214.55 166.614 2204.73 166.614Z" fill="#333333"/>
<path d="M2336.48 165.287H2328.38V83.29L2296.41 134.24H2290.97L2258.72 83.29V165.287H2250.76V71.4814H2260.32L2293.89 124.687L2327.19 71.4814H2336.48V165.287Z" fill="#333333"/>
<path d="M2433.43 165.287H2425.21V83.8207L2371.87 165.287H2362.71V71.4814H2370.94V152.948L2424.28 71.4814H2433.43V165.287Z" fill="#333333"/>
<path d="M1277.87 324.287H1269.78V242.29L1237.8 293.24H1232.36L1200.12 242.29V324.287H1192.16V230.481H1201.71L1235.28 283.687L1268.59 230.481H1277.87V324.287Z" fill="#333333"/>
<path d="M1339.54 318.184C1360.63 318.184 1371.78 299.874 1371.78 277.318C1371.78 255.293 1361.43 236.585 1339.54 236.585C1318.31 236.585 1307.3 255.16 1307.3 277.318C1307.3 302.129 1320.03 318.184 1339.54 318.184ZM1339.54 325.614C1315.12 325.614 1298.94 306.243 1298.94 277.318C1298.94 249.853 1313.93 229.155 1339.54 229.155C1364.88 229.155 1380.14 249.189 1380.14 277.318C1380.14 304.12 1365.68 325.614 1339.54 325.614Z" fill="#333333"/>
<path d="M1438.44 325.614C1411.24 325.614 1396.12 305.579 1396.12 277.318C1396.12 249.189 1411.37 229.155 1438.84 229.155C1448.39 229.155 1457.94 231.543 1467.63 236.319L1464.58 243.086C1455.29 238.708 1446.53 236.585 1438.44 236.585C1414.16 236.585 1404.47 256.752 1404.47 277.318C1404.47 302.129 1417.48 318.184 1438.04 318.184C1445.87 318.184 1454.76 316.061 1464.58 311.683L1467.63 318.449C1457.94 323.226 1448.26 325.614 1438.44 325.614Z" fill="#333333"/>
<path d="M1543.52 325.083C1529.19 310.754 1517.25 295.628 1506.1 279.308H1492.7V324.287H1484.48V230.481H1492.7V272.674H1506.37L1521.63 247.597C1528.53 236.187 1536.62 230.481 1545.91 230.481L1547.23 237.513C1538.61 237.513 1532.37 244.148 1526.67 253.303L1513 275.726C1523.35 290.453 1534.76 304.783 1549.62 319.909L1543.52 325.083Z" fill="#333333"/>
<path d="M1589.22 318.184C1610.32 318.184 1621.46 299.874 1621.46 277.318C1621.46 255.293 1611.11 236.585 1589.22 236.585C1567.99 236.585 1556.98 255.16 1556.98 277.318C1556.98 302.129 1569.72 318.184 1589.22 318.184ZM1589.22 325.614C1564.81 325.614 1548.62 306.243 1548.62 277.318C1548.62 249.853 1563.61 229.155 1589.22 229.155C1614.56 229.155 1629.82 249.189 1629.82 277.318C1629.82 304.12 1615.36 325.614 1589.22 325.614Z" fill="#333333"/>
<path d="M1686.8 324.287H1650.97V230.481H1682.82C1699.8 230.481 1711.35 239.371 1711.35 254.231C1711.35 266.571 1703.38 272.276 1696.62 275.593C1706.44 278.247 1715.72 285.677 1715.72 299.741C1715.72 315 1703.91 324.287 1686.8 324.287ZM1686.67 316.99C1698.34 316.99 1707.36 311.417 1707.36 299.21C1707.36 286.738 1698.08 279.972 1686.67 279.972H1659.2V316.99H1686.67ZM1682.02 272.674C1695.69 272.674 1702.99 265.642 1702.99 255.027C1702.99 243.351 1694.23 237.779 1682.02 237.779H1659.2V272.674H1682.02Z" fill="#333333"/>
<path d="M1771.31 325.614C1744.11 325.614 1728.99 305.579 1728.99 277.318C1728.99 249.189 1744.24 229.155 1771.71 229.155C1781.26 229.155 1790.82 231.543 1800.5 236.319L1797.45 243.086C1788.16 238.708 1779.4 236.585 1771.31 236.585C1747.03 236.585 1737.34 256.752 1737.34 277.318C1737.34 302.129 1750.35 318.184 1770.91 318.184C1778.74 318.184 1787.63 316.061 1797.45 311.683L1800.5 318.449C1790.82 323.226 1781.13 325.614 1771.31 325.614Z" fill="#333333"/>
<path d="M1876.39 325.083C1862.06 310.754 1850.12 295.628 1838.97 279.308H1825.57V324.287H1817.35V230.481H1825.57V272.674H1839.24L1854.5 247.597C1861.4 236.187 1869.49 230.481 1878.78 230.481L1880.1 237.513C1871.48 237.513 1865.24 244.148 1859.54 253.303L1845.87 275.726C1856.22 290.453 1867.63 304.783 1882.49 319.909L1876.39 325.083Z" fill="#333333"/>
<path d="M1922.09 318.184C1943.19 318.184 1954.33 299.874 1954.33 277.318C1954.33 255.293 1943.98 236.585 1922.09 236.585C1900.86 236.585 1889.85 255.16 1889.85 277.318C1889.85 302.129 1902.59 318.184 1922.09 318.184ZM1922.09 325.614C1897.68 325.614 1881.49 306.243 1881.49 277.318C1881.49 249.853 1896.48 229.155 1922.09 229.155C1947.43 229.155 1962.69 249.189 1962.69 277.318C1962.69 304.12 1948.23 325.614 1922.09 325.614Z" fill="#333333"/>
<path d="M1992.07 324.287H1983.85V230.481H2039.97V237.779H1992.07V324.287Z" fill="#333333"/>
<path d="M2075.25 318.184C2096.34 318.184 2107.49 299.874 2107.49 277.318C2107.49 255.293 2097.14 236.585 2075.25 236.585C2054.02 236.585 2043 255.16 2043 277.318C2043 302.129 2055.74 318.184 2075.25 318.184ZM2075.25 325.614C2050.83 325.614 2034.65 306.243 2034.65 277.318C2034.65 249.853 2049.64 229.155 2075.25 229.155C2100.59 229.155 2115.85 249.189 2115.85 277.318C2115.85 304.12 2101.38 325.614 2075.25 325.614Z" fill="#333333"/>
<path d="M1263.81 483.287H1254.92L1243.51 453.965H1200.65L1189.37 483.287H1180.88L1218.3 389.481H1226.26L1263.81 483.287ZM1240.72 446.933L1222.01 398.769L1203.44 446.933H1240.72Z" fill="#333333"/>
<path d="M1314.67 483.287H1278.84V389.481H1310.69C1327.67 389.481 1339.21 398.371 1339.21 413.231C1339.21 425.571 1331.25 431.276 1324.49 434.593C1334.31 437.247 1343.59 444.677 1343.59 458.741C1343.59 474 1331.78 483.287 1314.67 483.287ZM1314.54 475.99C1326.21 475.99 1335.23 470.417 1335.23 458.21C1335.23 445.738 1325.95 438.972 1314.54 438.972H1287.07V475.99H1314.54ZM1309.89 431.674C1323.56 431.674 1330.86 424.642 1330.86 414.027C1330.86 402.351 1322.1 396.779 1309.89 396.779H1287.07V431.674H1309.89Z" fill="#333333"/>
<path d="M1432.75 483.287H1424.52V401.821L1371.18 483.287H1362.03V389.481H1370.26V470.948L1423.59 389.481H1432.75V483.287Z" fill="#333333"/>
<path d="M1530.73 483.287H1521.84L1510.43 453.965H1467.57L1456.29 483.287H1447.8L1485.22 389.481H1493.18L1530.73 483.287ZM1507.64 446.933L1488.93 398.769L1470.36 446.933H1507.64Z" fill="#333333"/>
<path d="M1622.45 501.067H1614.62V483.287H1545.76V389.481H1553.99V475.99H1603.35V389.481H1611.57V475.99H1622.45V501.067Z" fill="#333333"/>
<path d="M1709.26 483.287H1701.03V401.821L1647.69 483.287H1638.54V389.481H1646.76V470.948L1700.1 389.481H1709.26V483.287Z" fill="#333333"/>
<path d="M1771.01 477.184C1792.11 477.184 1803.25 458.874 1803.25 436.318C1803.25 414.293 1792.9 395.585 1771.01 395.585C1749.78 395.585 1738.77 414.16 1738.77 436.318C1738.77 461.129 1751.51 477.184 1771.01 477.184ZM1771.01 484.614C1746.6 484.614 1730.41 465.243 1730.41 436.318C1730.41 408.853 1745.4 388.155 1771.01 388.155C1796.35 388.155 1811.61 408.189 1811.61 436.318C1811.61 463.12 1797.15 484.614 1771.01 484.614Z" fill="#333333"/>
<path d="M1901.1 483.287H1892.87V439.9H1840.99V483.287H1832.76V389.481H1840.99V432.603H1892.87V389.481H1901.1V483.287Z" fill="#333333"/>
<path d="M1995.68 483.287H1987.46V439.9H1935.58V483.287H1927.35V389.481H1935.58V432.603H1987.46V389.481H1995.68V483.287Z" fill="#333333"/>
<path d="M2057.37 477.184C2078.46 477.184 2089.61 458.874 2089.61 436.318C2089.61 414.293 2079.26 395.585 2057.37 395.585C2036.14 395.585 2025.12 414.16 2025.12 436.318C2025.12 461.129 2037.86 477.184 2057.37 477.184ZM2057.37 484.614C2032.95 484.614 2016.76 465.243 2016.76 436.318C2016.76 408.853 2031.76 388.155 2057.37 388.155C2082.71 388.155 2097.97 408.189 2097.97 436.318C2097.97 463.12 2083.5 484.614 2057.37 484.614Z" fill="#333333"/>
<path d="M2127.34 483.287H2119.12V389.481H2175.24V396.779H2127.34V483.287Z" fill="#333333"/>
<path d="M2210.52 477.184C2231.62 477.184 2242.76 458.874 2242.76 436.318C2242.76 414.293 2232.41 395.585 2210.52 395.585C2189.29 395.585 2178.28 414.16 2178.28 436.318C2178.28 461.129 2191.02 477.184 2210.52 477.184ZM2210.52 484.614C2186.11 484.614 2169.92 465.243 2169.92 436.318C2169.92 408.853 2184.91 388.155 2210.52 388.155C2235.86 388.155 2251.12 408.189 2251.12 436.318C2251.12 463.12 2236.66 484.614 2210.52 484.614Z" fill="#333333"/>
<path d="M2377.07 483.287H2368.84V401.821L2315.5 483.287H2306.35V389.481H2314.58V470.948L2367.91 389.481H2377.07V483.287Z" fill="#333333"/>
<path d="M2471.73 483.287H2463.5V439.9H2411.63V483.287H2403.4V389.481H2411.63V432.603H2463.5V389.481H2471.73V483.287Z" fill="#333333"/>
<path d="M2535.14 484.614C2507.94 484.614 2492.81 464.579 2492.81 436.318C2492.81 408.189 2508.07 388.155 2535.54 388.155C2545.09 388.155 2554.64 390.543 2564.33 395.319L2561.28 402.086C2551.99 397.708 2543.23 395.585 2535.14 395.585C2510.86 395.585 2501.17 415.752 2501.17 436.318C2501.17 461.129 2514.17 477.184 2534.74 477.184C2542.57 477.184 2551.46 475.061 2561.28 470.683L2564.33 477.449C2554.64 482.226 2544.96 484.614 2535.14 484.614Z" fill="#333333"/>
<path d="M2611.48 483.287H2603.26V396.779H2573.27V389.481H2641.47V396.779H2611.48V483.287Z" fill="#333333"/>
<path d="M2727.56 483.287H2719.33V401.821L2666 483.287H2656.84V389.481H2665.07V470.948L2718.41 389.481H2727.56V483.287Z" fill="#333333"/>
<path d="M2781.22 483.287H2773V396.779H2743.01V389.481H2811.21V396.779H2781.22V483.287Z" fill="#333333"/>
<path d="M2835.23 488.197L2829.39 482.491C2837.48 473.867 2843.46 464.977 2847.57 455.955L2819.57 389.481H2828.6L2851.81 446.269L2874.24 389.481H2882.99L2858.85 449.055C2852.61 464.845 2843.85 479.572 2835.23 488.197Z" fill="#333333"/>
<path d="M2929.58 483.287H2921.36V396.779H2891.37V389.481H2959.57V396.779H2929.58V483.287Z" fill="#333333"/>
<path d="M3022.49 483.287H3013.6L3002.19 453.965H2959.33L2948.05 483.287H2939.56L2976.98 389.481H2984.94L3022.49 483.287ZM2999.4 446.933L2980.69 398.769L2962.12 446.933H2999.4Z" fill="#333333"/>
<defs>
<filter id="filter0_i_1_84" x="0" y="0" width="2012.38" height="753.876" filterUnits="userSpaceOnUse" color-interpolation-filters="sRGB">
<feFlood flood-opacity="0" result="BackgroundImageFix"/>
<feBlend mode="normal" in="SourceGraphic" in2="BackgroundImageFix" result="shape"/>
<feColorMatrix in="SourceAlpha" type="matrix" values="0 0 0 0 0 0 0 0 0 0 0 0 0 0 0 0 0 0 127 0" result="hardAlpha"/>
<feOffset dy="3.8822"/>
<feGaussianBlur stdDeviation="4.31895"/>
<feComposite in2="hardAlpha" operator="arithmetic" k2="-1" k3="1"/>
<feColorMatrix type="matrix" values="0 0 0 0 0 0 0 0 0 0 0 0 0 0 0 0 0 0 0.25 0"/>
<feBlend mode="normal" in2="shape" result="effect1_innerShadow_1_84"/>
</filter>
</defs>
</svg>
